<svg width="139" height="119" viewBox="0 0 139 119" fill="none" xmlns="http://www.w3.org/2000/svg">
<path d="M42.6458 67.2823C42.6485 67.329 42.6537 67.4224 42.7039 67.4656C42.7065 67.5123 42.7593 67.6023 42.7619 67.649C42.812 67.6922 42.8173 67.7856 42.8674 67.8288C42.9176 67.8721 42.9677 67.9153 43.0205 68.0053C43.2764 68.3149 43.7197 68.564 44.2104 68.8097C44.3081 68.8495 44.4532 68.8859 44.5508 68.9257C44.601 68.9689 44.6959 68.962 44.7461 69.0053C44.7962 69.0485 44.8912 69.0416 44.9413 69.0849L45.134 69.1178C45.3767 69.194 45.6669 69.2667 45.9546 69.2927C46.0997 69.3291 46.1947 69.3222 46.3398 69.3585C46.4348 69.3517 46.5324 69.3915 46.6749 69.3811C46.7699 69.3742 46.8675 69.414 46.9625 69.4072C47.7277 69.4454 48.4375 69.3471 49.0418 69.0689C51.1343 68.1202 51.8969 66.4241 51.8969 66.4241C51.8969 66.4241 52.4748 66.5228 53.3825 66.5508C55.1055 66.6603 57.9737 66.7805 60.4303 66.368C61.2324 66.2161 62.0768 65.9673 62.966 65.6685C63.2457 65.5544 63.5254 65.4404 63.8526 65.3229C64.412 65.0948 64.9213 64.8235 65.4781 64.5487C66.961 63.7849 68.3358 62.7945 69.4678 61.7279C69.605 61.6242 69.7396 61.4738 69.8768 61.3701C70.5075 60.7149 71.0406 60.02 71.4311 59.3353C72.2043 57.826 73.2757 56.5294 74.4446 55.2726C76.1994 53.4108 78.2999 51.7584 80.2051 50.0263C80.7962 49.5146 81.3846 48.9563 81.9282 48.4481C83.6909 46.7263 85.2478 44.7382 86.2664 42.5079C87.3695 40.0839 87.2456 37.8895 86.9106 35.3353C86.9027 35.1953 86.5229 33.5351 86.6152 33.4815C87.4385 32.8593 88.0111 32.0208 88.2882 31.0162C88.9374 29.0001 88.5101 26.4996 87.5154 24.9309C87.4099 24.751 87.3044 24.5711 87.2015 24.4379C86.1593 22.8727 84.9113 21.0411 83.5578 19.8734L81.1013 17.7544L60.8682 19.2213C60.8682 19.2213 60.7072 20.5925 60.4696 22.2974C60.43 22.4409 60.4379 22.581 60.3983 22.7245C60.3666 23.0081 60.335 23.2916 60.2558 23.5787C60.2162 23.7222 60.2241 23.8623 60.1845 24.0058C60.1872 24.0525 60.1872 24.0525 60.1423 24.1026C60.1133 24.4329 60.0341 24.7199 60.005 25.0502C59.8678 25.9977 59.6778 26.8553 59.4323 27.5763C59.435 27.623 59.3927 27.7199 59.3954 27.7665C59.274 28.1504 59.1499 28.4875 59.0206 28.7313C57.9835 30.6349 52.4843 36.2842 48.6133 39.5183C44.7422 42.7524 43.172 47.8825 42.5831 56.0355C41.8491 64.1522 42.3688 65.7553 42.6458 67.2823Z" fill="#EAEEF9"/>
<path opacity="0.3" d="M42.6619 67.2747C42.8923 68.8096 46.8844 69.978 48.9852 69.0266C51.1336 68.0717 51.8516 66.374 51.8516 66.374C51.8516 66.374 56.6253 66.9687 60.4214 66.3646C63.2666 65.8764 67.0363 63.9578 69.4445 61.6676L68.7084 54.5743C68.7084 54.5743 68.0703 48.3671 67.6307 45.672C67.2388 42.9733 69.4349 42.8613 69.1411 39.3563C68.7995 35.8547 69.878 29.5232 71.4148 23.6758L64.6599 19.3692L60.3656 22.1722C60.0687 24.5446 59.5202 27.5464 58.9612 28.6683C57.92 30.5774 52.399 36.2432 48.5126 39.4868C44.6262 42.7303 43.0497 47.8754 42.4585 56.0522C41.862 64.1354 42.3838 65.7433 42.6619 67.2747Z" fill="#C4D1E4"/>
<path opacity="0.2" d="M42.6825 67.2832C42.6851 67.3298 42.6904 67.4231 42.7404 67.4663C42.7431 67.513 42.7958 67.6028 42.7984 67.6495C42.8485 67.6927 42.8538 67.786 42.9039 67.8292C42.954 67.8724 43.0041 67.9156 43.0568 68.0054C43.3125 68.3148 43.7555 68.5637 44.2459 68.8092C44.3434 68.849 44.4885 68.8853 44.586 68.925C44.6361 68.9683 44.731 68.9614 44.7811 69.0046C44.8312 69.0478 44.9261 69.0409 44.9762 69.0841L45.1687 69.117C45.4113 69.1931 45.7013 69.2658 45.9887 69.2918C46.1337 69.3281 46.2286 69.3212 46.3736 69.3575C47.0143 68.8895 47.3782 68.5821 47.3782 68.5821C47.3782 68.5821 47.3782 68.5821 46.9986 66.9234C46.8747 66.4172 46.7403 65.7244 46.5452 64.8017C45.7096 60.9747 45.7048 53.2934 50.9859 53.1448C50.1952 49.2676 52.1333 44.7711 53.8763 41.8813C55.6694 39.0346 57.1774 40.4241 58.9439 42.1697C59.0889 41.3629 58.0555 38.2527 56.8534 35.5295C59.1313 37.8937 61.0797 38.6424 66.1842 38.7408C63.8008 37.04 63.4607 36.081 61.378 32.1102C63.7641 33.0145 68.5812 33.93 71.4498 34.0967C78.3815 34.4842 84.2954 33.7276 88.1477 31.0596C88.7964 29.0453 88.3694 26.5469 87.3755 24.9796C87.27 24.7999 87.1646 24.6202 87.0618 24.4871C83.389 24.4255 77.1428 24.3631 71.2763 24.2731C66.9839 24.2096 62.8813 24.1323 60.1155 24.0986C60.1181 24.1452 60.1181 24.1452 60.0733 24.1953C60.0443 24.5253 59.9652 24.812 59.9362 25.142C59.799 26.0887 59.6091 26.9456 59.3639 27.666C59.3665 27.7126 59.3243 27.8094 59.327 27.856C59.2056 28.2395 59.0817 28.5764 58.9525 28.8199C57.9162 30.7218 52.4212 36.3661 48.5531 39.5973C44.685 42.8286 43.1159 47.9541 42.5275 56.0999C41.8864 64.1558 42.4057 65.7575 42.6825 67.2832Z" fill="#BFC8D6"/>
<path d="M82.8198 29.4907C82.3583 29.8421 81.8477 30.149 81.3353 30.4091C80.6369 30.7722 79.8893 31.0909 79.14 31.3628C76.8444 32.1808 74.4415 32.6757 71.9679 32.5642C69.9226 32.4783 67.7736 32.1629 65.8436 31.3675C65.1693 31.1196 64.4914 30.778 63.9082 30.4317C60.5535 28.3935 58.6878 26.7973 58.8215 22.8496C58.9552 18.9019 59.4565 15.8743 59.4565 15.8743C59.4914 15.5442 59.9018 15.1015 60.0332 14.8134C60.2576 14.4739 60.4329 14.0898 60.6573 13.7502C61.0588 13.0734 61.5058 12.3474 61.9565 11.7151C62.949 10.352 64.1401 9.21364 65.5825 8.43812C67.9093 7.19634 70.6037 6.8746 73.2142 6.83855C75.1119 6.79105 77.0623 6.88167 78.8921 7.54129C80.4814 8.11906 81.7988 9.03877 82.9373 10.2489C84.1743 11.5479 85.0884 13.0976 86.1412 14.5466C86.1412 14.5466 86.8722 17.5129 87.3073 21.4323C87.7424 25.3517 86.0041 27.0802 82.8198 29.4907Z" fill="#EAEEF9"/>
<path d="M67.7937 21.9299C67.2426 22.4268 66.5959 24.149 63.9481 23.248C60.1917 21.9326 60.388 17.1342 62.3698 15.5333C65.9172 12.6338 69.712 13.7126 70.4175 17.2454C71.132 21.0126 68.8978 20.9829 67.7937 21.9299Z" fill="#BFC8D6"/>
<path d="M61.4761 9.87448C62.6638 8.54519 64.1595 9.03535 63.4581 10.6227C62.3171 13.1729 60.4547 14.3005 59.3002 23.9552C59.0797 25.6598 53.5426 21.654 53.9304 15.6129C53.9823 14.4812 55.3998 14.1755 55.3998 14.1755C56.2503 13.9921 59.6038 11.9905 61.4761 9.87448Z" fill="#989FB0"/>
<path d="M81.1732 27.7962C81.2181 28.9655 80.9296 30.1045 80.3971 31.0681C79.7921 31.3794 79.1381 31.6462 78.484 31.913C76.4708 32.6223 74.3521 33.0557 72.261 32.9723C70.5033 32.9191 68.5927 32.5924 66.9064 31.9265C66.2039 30.9305 65.8294 29.8245 65.7809 28.5617C65.6339 24.7266 68.973 21.4678 73.2354 21.2558C77.4506 21.0461 81.0262 23.961 81.1732 27.7962Z" fill="#BFC8D6"/>
<path d="M65.6414 21.5194C67.1865 21.4425 68.3917 20.1425 68.3332 18.6157C68.2748 17.0889 66.9747 15.9136 65.4296 15.9905C63.8844 16.0674 62.6792 17.3674 62.7377 18.8942C62.7962 20.4209 64.0962 21.5963 65.6414 21.5194Z" fill="white"/>
<path d="M68.0595 18.9148C68.1043 20.0862 67.1462 21.1197 65.9607 21.1787C64.7752 21.2377 63.7417 20.3033 63.6968 19.1319C63.8937 19.3099 64.1362 19.4386 64.4207 19.4245C64.9423 19.3985 65.4004 18.9532 65.3788 18.3909C65.3591 17.8755 64.9161 17.4751 64.3927 17.4542C64.7595 17.1073 65.274 16.8939 65.7956 16.868C67.0285 16.8066 68.0128 17.6965 68.0595 18.9148Z" fill="#989FB0"/>
<path d="M81.1087 20.8441C82.6538 20.7672 83.859 19.4672 83.8005 17.9404C83.742 16.4137 82.442 15.2383 80.8969 15.3152C79.3517 15.3921 78.1465 16.6921 78.205 18.2189C78.2635 19.7456 79.5635 20.921 81.1087 20.8441Z" fill="white"/>
<path d="M78.5035 18.4854C78.5483 19.6568 79.5819 20.5913 80.7674 20.5323C81.9528 20.4733 82.911 19.4397 82.8661 18.2684C82.6836 18.4652 82.4519 18.6176 82.1674 18.6317C81.6457 18.6577 81.1554 18.2596 81.1339 17.6973C81.1141 17.1819 81.5247 16.739 82.0446 16.6662C81.6526 16.357 81.1238 16.1956 80.6022 16.2215C79.4167 16.2805 78.4568 17.2672 78.5035 18.4854Z" fill="#989FB0"/>
<path d="M73.2301 21.6927C72.8516 21.7114 72.4749 21.7769 72.1 21.889C71.6323 22.0525 70.9316 22.321 70.9549 22.9274C70.9835 23.6739 72.8082 24.2844 73.2813 24.2609C73.7544 24.2374 75.5272 23.495 75.4967 22.7019C75.4681 21.9554 74.7495 21.7574 74.1308 21.6947C73.8452 21.6621 73.5122 21.6319 73.2301 21.6927Z" fill="#989FB0"/>
<path d="M73.4801 24.1266L73.3278 23.8986L73.1935 24.1409C73.1935 24.1409 73.1135 25.794 72.7514 26.3302C73.0028 26.6476 73.2416 26.6358 73.3353 26.584C73.4804 26.6239 73.7192 26.6121 73.8975 26.2734C73.5929 25.8173 73.4801 24.1266 73.4801 24.1266Z" fill="#989FB0"/>
<path d="M65.0044 12.7774C64.3482 12.9977 63.7867 13.2132 63.3272 13.6113C62.8676 14.0094 62.5101 14.59 62.3438 15.208C62.3456 15.2548 62.2982 15.2572 62.2509 15.2596C62.2035 15.2619 62.2017 15.2151 62.2017 15.2151C62.1891 14.8874 62.3169 14.5058 62.4483 14.2179C62.5779 13.8831 62.8041 13.5904 63.0795 13.3422C63.3548 13.094 63.632 12.8926 63.9583 12.7356C64.2864 12.6255 64.6637 12.5598 64.999 12.637C65.0482 12.6814 65.0974 12.7259 65.0044 12.7774C65.0518 12.775 65.0518 12.775 65.0044 12.7774Z" fill="#989FB0"/>
<path d="M80.976 12.0974C81.6466 12.2517 82.2224 12.4106 82.7107 12.7616C83.1989 13.1125 83.5995 13.6554 83.8124 14.2545C83.8142 14.3014 83.8616 14.299 83.909 14.2966C83.9564 14.2943 83.9546 14.2475 83.9546 14.2475C83.942 13.9198 83.7855 13.5523 83.6326 13.2785C83.4778 12.9579 83.2301 12.6888 82.9368 12.4689C82.6435 12.249 82.352 12.0759 82.0149 11.9519C81.6796 11.8748 81.2987 11.8469 80.9706 11.957C80.925 12.0062 80.9268 12.053 80.976 12.0974C80.976 12.0974 80.9286 12.0998 80.976 12.0974Z" fill="#989FB0"/>
<path d="M84.0434 8.45097C82.7584 7.24464 81.3059 7.88142 82.1262 9.39313C83.4579 11.8203 85.3995 12.7588 87.2884 22.2621C87.6385 23.9383 92.848 19.3981 91.9994 13.4185C91.8611 12.2963 90.4256 12.1324 90.4256 12.1324C89.5643 12.0341 86.0704 10.3731 84.0434 8.45097Z" fill="#989FB0"/>
<path d="M78.3233 29.3205C78.6649 31.6984 76.7209 32.6141 74.1714 32.9264C71.6219 33.2386 69.4866 32.8226 69.1451 30.4447C68.8035 28.0667 70.5699 25.9146 73.1194 25.6023C75.6689 25.29 77.9818 26.9426 78.3233 29.3205Z" fill="#EAEEF9"/>
<path d="M25.3399 23.1751C26.2149 23.1751 26.8954 22.389 26.8954 21.5046C26.8954 20.6202 26.2149 19.8341 25.2426 19.8341C24.3676 19.8341 23.5898 20.522 23.5898 21.5046C23.6871 22.389 24.4649 23.1751 25.3399 23.1751Z" fill="#EAEEF9"/>
<path d="M23.6699 108.748H114.929" stroke="#D6DCE8" stroke-width="2" stroke-miterlimit="10" stroke-linejoin="round"/>
<path d="M13.29 108.748H21.0873" stroke="#D6DCE8" stroke-width="2" stroke-miterlimit="10" stroke-linejoin="round"/>
<path d="M24.971 21.7572L20.9224 22.5698L23.9402 37.7163L27.9889 36.9036L24.971 21.7572Z" fill="#D5DDEA"/>
<path d="M39.8523 37.8346L37.2249 24.4605H16.018C15.0796 24.4605 14.3289 24.0838 13.7659 23.5187L12.2645 21.8234C11.7015 21.2583 12.0769 20.1281 13.0152 20.1281H38.9139C39.8523 20.1281 40.7906 20.8815 40.9783 21.8234L43.9811 36.8928L39.8523 37.8346Z" fill="#D5DDEA"/>
<path d="M101.596 108.472C105.638 108.472 108.915 105.183 108.915 101.126C108.915 97.0687 105.638 93.7797 101.596 93.7797C97.5538 93.7797 94.2769 97.0687 94.2769 101.126C94.2769 105.183 97.5538 108.472 101.596 108.472Z" fill="url(#paint0_linear)"/>
<path d="M49.9862 108.472C54.0285 108.472 57.3054 105.183 57.3054 101.126C57.3054 97.0687 54.0285 93.7797 49.9862 93.7797C45.9439 93.7797 42.667 97.0687 42.667 101.126C42.667 105.183 45.9439 108.472 49.9862 108.472Z" fill="url(#paint1_linear)"/>
<path d="M49.3499 83.7381L45.3037 84.5632L48.7413 101.546L52.7875 100.721L49.3499 83.7381Z" fill="#D5DDEA"/>
<path d="M101.409 103.198H37.9757C37.0373 103.198 36.099 102.445 35.9113 101.503L31.4072 79.6521C31.2195 78.5219 31.9702 77.3917 33.0962 77.2033C34.2222 77.0149 35.3483 77.7684 35.5359 78.8986L39.6647 99.0539H101.596C102.722 99.0539 103.661 99.9957 103.661 101.126C103.661 102.256 102.722 103.198 101.409 103.198Z" fill="#D5DDEA"/>
<path d="M37.6005 108.472C41.6427 108.472 44.9197 105.183 44.9197 101.126C44.9197 97.0687 41.6427 93.7797 37.6005 93.7797C33.5582 93.7797 30.2812 97.0687 30.2812 101.126C30.2812 105.183 33.5582 108.472 37.6005 108.472Z" fill="url(#paint2_linear)"/>
<path d="M37.6004 104.705C39.5698 104.705 41.1662 103.103 41.1662 101.126C41.1662 99.1494 39.5698 97.547 37.6004 97.547C35.6311 97.547 34.0347 99.1494 34.0347 101.126C34.0347 103.103 35.6311 104.705 37.6004 104.705Z" fill="#8691AA"/>
<path d="M89.2098 108.472C93.2521 108.472 96.529 105.183 96.529 101.126C96.529 97.0687 93.2521 93.7797 89.2098 93.7797C85.1675 93.7797 81.8906 97.0687 81.8906 101.126C81.8906 105.183 85.1675 108.472 89.2098 108.472Z" fill="url(#paint3_linear)"/>
<path d="M89.2098 104.705C91.1791 104.705 92.7756 103.103 92.7756 101.126C92.7756 99.1494 91.1791 97.547 89.2098 97.547C87.2405 97.547 85.644 99.1494 85.644 101.126C85.644 103.103 87.2405 104.705 89.2098 104.705Z" fill="#8691AA"/>
<g filter="url(#filter0_d)">
<path d="M116.61 36.3278L108.915 80.5941C108.352 83.4196 106.1 85.3033 103.285 85.3033H37.2245C34.4094 85.3033 32.1573 83.4196 31.5943 80.5941L22.9614 36.3278H116.61Z" fill="url(#paint4_linear)"/>
</g>
<path d="M62.1848 79.2755C63.1232 79.2755 64.0615 78.522 64.0615 77.3918V44.4275C64.0615 43.4857 63.3109 42.5438 62.1848 42.5438C61.2465 42.5438 60.3081 43.2973 60.3081 44.4275V77.3918C60.3081 78.522 61.0588 79.2755 62.1848 79.2755Z" fill="#E7EAF4"/>
<path d="M71.7564 79.2754C72.6948 79.4637 73.6332 78.7103 73.8208 77.5801L77.0112 44.8041C77.1989 43.8623 76.4482 42.9205 75.3222 42.7321C74.3838 42.5437 73.4455 43.2972 73.2578 44.4274L70.0674 77.2033C70.0674 78.3335 70.6304 79.087 71.7564 79.2754Z" fill="#E7EAF4"/>
<path d="M81.5154 79.087C82.4538 79.2753 83.3922 78.5219 83.5798 77.58L89.5853 45.1808C89.773 44.239 89.0223 43.2971 88.084 43.1088C87.1456 42.9204 86.2072 43.6739 86.0196 44.6157L80.2017 77.0149C79.8264 77.9568 80.5771 78.8986 81.5154 79.087Z" fill="#E7EAF4"/>
<path d="M52.4261 79.2754C51.4878 79.4637 50.5494 78.7103 50.3617 77.5801L47.1713 44.8041C46.9836 43.8623 47.7343 42.9205 48.8604 42.7321C49.7987 42.5437 50.7371 43.2972 50.9248 44.4274L54.1152 77.2033C54.1152 78.3335 53.5522 79.087 52.4261 79.2754Z" fill="#E7EAF4"/>
<path d="M42.6672 79.087C41.7288 79.2753 40.7905 78.5219 40.6028 77.58L34.5973 45.1808C34.4096 44.239 35.1603 43.2971 36.0987 43.1088C37.037 42.9204 37.9754 43.6739 38.1631 44.6157L43.9809 77.0149C44.3562 77.9568 43.6056 78.8986 42.6672 79.087Z" fill="#E7EAF4"/>
<path d="M116.61 36.327L108.916 80.5933C108.353 83.4188 106.101 85.3025 103.286 85.3025H85.832C89.0225 85.3025 91.6499 83.0421 92.2129 80.0282L100.283 36.327H116.61Z" fill="#DBDFEC"/>
<defs>
<filter id="filter0_d" x="0.961426" y="25.3278" width="137.648" height="92.9755" filterUnits="userSpaceOnUse" color-interpolation-filters="sRGB">
<feFlood flood-opacity="0" result="BackgroundImageFix"/>
<feColorMatrix in="SourceAlpha" type="matrix" values="0 0 0 0 0 0 0 0 0 0 0 0 0 0 0 0 0 0 127 0" result="hardAlpha"/>
<feOffset dy="11"/>
<feGaussianBlur stdDeviation="11"/>
<feColorMatrix type="matrix" values="0 0 0 0 0.397708 0 0 0 0 0.47749 0 0 0 0 0.575 0 0 0 0.27 0"/>
<feBlend mode="normal" in2="BackgroundImageFix" result="effect1_dropShadow"/>
<feBlend mode="normal" in="SourceGraphic" in2="effect1_dropShadow" result="shape"/>
</filter>
<linearGradient id="paint0_linear" x1="94.2702" y1="101.128" x2="108.918" y2="101.128" gradientUnits="userSpaceOnUse">
<stop stop-color="#B0BACC"/>
<stop offset="1" stop-color="#969EAE"/>
</linearGradient>
<linearGradient id="paint1_linear" x1="42.6603" y1="101.128" x2="57.3081" y2="101.128" gradientUnits="userSpaceOnUse">
<stop stop-color="#B0BACC"/>
<stop offset="1" stop-color="#969EAE"/>
</linearGradient>
<linearGradient id="paint2_linear" x1="30.2745" y1="101.128" x2="44.9223" y2="101.128" gradientUnits="userSpaceOnUse">
<stop stop-color="#B0BACC"/>
<stop offset="1" stop-color="#969EAE"/>
</linearGradient>
<linearGradient id="paint3_linear" x1="81.8839" y1="101.128" x2="96.5317" y2="101.128" gradientUnits="userSpaceOnUse">
<stop stop-color="#B0BACC"/>
<stop offset="1" stop-color="#969EAE"/>
</linearGradient>
<linearGradient id="paint4_linear" x1="69.755" y1="35.1949" x2="69.755" y2="85.8313" gradientUnits="userSpaceOnUse">
<stop stop-color="#FDFEFF"/>
<stop offset="0.9964" stop-color="#ECF0F5"/>
</linearGradient>
</defs>
</svg>
