<svg width="107" height="110" viewBox="0 0 107 110" fill="none" xmlns="http://www.w3.org/2000/svg">
<path d="M32.6458 67.282C32.6485 67.3287 32.6537 67.4221 32.7039 67.4653C32.7065 67.512 32.7593 67.602 32.7619 67.6486C32.812 67.6919 32.8173 67.7853 32.8674 67.8285C32.9176 67.8718 32.9677 67.915 33.0205 68.0049C33.2764 68.3146 33.7197 68.5637 34.2104 68.8094C34.3081 68.8492 34.4532 68.8856 34.5508 68.9254C34.601 68.9686 34.6959 68.9617 34.7461 69.005C34.7962 69.0482 34.8912 69.0413 34.9413 69.0846L35.134 69.1175C35.3767 69.1937 35.6669 69.2664 35.9546 69.2924C36.0997 69.3288 36.1947 69.3219 36.3398 69.3582C36.4348 69.3513 36.5324 69.3912 36.6749 69.3808C36.7699 69.3739 36.8675 69.4137 36.9625 69.4069C37.7277 69.4451 38.4375 69.3468 39.0418 69.0686C41.1343 68.1199 41.8969 66.4238 41.8969 66.4238C41.8969 66.4238 42.4748 66.5225 43.3825 66.5505C45.1055 66.66 47.9737 66.7802 50.4303 66.3677C51.2324 66.2158 52.0768 65.967 52.966 65.6682C53.2457 65.5541 53.5254 65.4401 53.8526 65.3226C54.412 65.0945 54.9213 64.8232 55.4781 64.5484C56.961 63.7846 58.3358 62.7942 59.4678 61.7276C59.605 61.6239 59.7396 61.4735 59.8768 61.3698C60.5075 60.7146 61.0406 60.0197 61.4311 59.335C62.2043 57.8257 63.2757 56.5291 64.4446 55.2723C66.1994 53.4105 68.2999 51.7581 70.2051 50.026C70.7962 49.5143 71.3846 48.956 71.9282 48.4478C73.6909 46.726 75.2478 44.7379 76.2664 42.5076C77.3695 40.0836 77.2456 37.8892 76.9106 35.335C76.9027 35.195 76.5229 33.5348 76.6152 33.4812C77.4385 32.859 78.0111 32.0205 78.2882 31.0159C78.9374 28.9998 78.5101 26.4993 77.5154 24.9306C77.4099 24.7507 77.3044 24.5708 77.2015 24.4376C76.1593 22.8724 74.9113 21.0408 73.5578 19.8731L71.1013 17.7541L50.8682 19.221C50.8682 19.221 50.7072 20.5922 50.4696 22.2971C50.43 22.4406 50.4379 22.5807 50.3983 22.7242C50.3666 23.0078 50.335 23.2913 50.2558 23.5784C50.2162 23.7219 50.2241 23.8619 50.1845 24.0055C50.1872 24.0521 50.1872 24.0521 50.1423 24.1023C50.1133 24.4326 50.0341 24.7196 50.005 25.0498C49.8678 25.9974 49.6778 26.855 49.4323 27.576C49.435 27.6227 49.3927 27.7196 49.3954 27.7662C49.274 28.1501 49.1499 28.4872 49.0206 28.731C47.9835 30.6346 42.4843 36.2839 38.6133 39.518C34.7422 42.7521 33.172 47.8822 32.5831 56.0352C31.8491 64.1519 32.3688 65.755 32.6458 67.282Z" fill="#424456"/>
<path opacity="0.3" d="M32.6619 67.2748C32.8923 68.8096 36.8844 69.9781 38.9852 69.0266C41.1336 68.0717 41.8516 66.3741 41.8516 66.3741C41.8516 66.3741 46.6253 66.9687 50.4214 66.3647C53.2666 65.8765 57.0363 63.9579 59.4445 61.6677L58.7084 54.5743C58.7084 54.5743 58.0703 48.3672 57.6307 45.672C57.2388 42.9734 59.4349 42.8613 59.1411 39.3563C58.7995 35.8547 59.878 29.5233 61.4148 23.6759L54.6599 19.3693L50.3656 22.1722C50.0687 24.5446 49.5202 27.5464 48.9612 28.6683C47.92 30.5774 42.399 36.2432 38.5126 39.4868C34.6262 42.7304 33.0497 47.8755 32.4585 56.0523C31.862 64.1355 32.3838 65.7433 32.6619 67.2748Z" fill="#424456"/>
<path opacity="0.2" d="M32.6825 67.2831C32.6851 67.3297 32.6904 67.423 32.7404 67.4663C32.7431 67.5129 32.7958 67.6028 32.7984 67.6494C32.8485 67.6926 32.8538 67.7859 32.9039 67.8291C32.954 67.8723 33.0041 67.9155 33.0568 68.0054C33.3125 68.3147 33.7555 68.5636 34.2459 68.8091C34.3434 68.8489 34.4885 68.8852 34.586 68.925C34.6361 68.9682 34.731 68.9613 34.7811 69.0045C34.8312 69.0477 34.9261 69.0409 34.9762 69.0841L35.1687 69.1169C35.4113 69.193 35.7013 69.2657 35.9887 69.2917C36.1337 69.328 36.2286 69.3211 36.3736 69.3575C37.0143 68.8895 37.3782 68.5821 37.3782 68.5821C37.3782 68.5821 37.3782 68.5821 36.9986 66.9234C36.8747 66.4171 36.7403 65.7243 36.5452 64.8017C35.7096 60.9746 35.7048 53.2934 40.9859 53.1447C40.1952 49.2676 42.1333 44.771 43.8763 41.8812C45.6694 39.0346 47.1774 40.4241 48.9439 42.1696C49.0889 41.3628 48.0555 38.2527 46.8534 35.5295C49.1313 37.8937 51.0797 38.6424 56.1842 38.7407C53.8008 37.0399 53.4607 36.081 51.378 32.1101C53.7641 33.0144 58.5812 33.9299 61.4498 34.0967C68.3815 34.4841 74.2954 33.7275 78.1477 31.0595C78.7964 29.0452 78.3694 26.5469 77.3755 24.9796C77.27 24.7999 77.1646 24.6202 77.0618 24.4871C73.389 24.4255 67.1428 24.363 61.2763 24.2731C56.9839 24.2095 52.8813 24.1322 50.1155 24.0985C50.1181 24.1451 50.1181 24.1451 50.0733 24.1952C50.0443 24.5252 49.9652 24.812 49.9362 25.142C49.799 26.0887 49.6091 26.9455 49.3639 27.6659C49.3665 27.7126 49.3243 27.8093 49.327 27.8559C49.2056 28.2394 49.0817 28.5763 48.9525 28.8199C47.9162 30.7217 42.4212 36.366 38.5531 39.5973C34.685 42.8285 33.1159 47.954 32.5275 56.0998C31.8864 64.1558 32.4057 65.7575 32.6825 67.2831Z" fill="#989FB0"/>
<path d="M72.8198 29.4904C72.3583 29.8418 71.8477 30.1487 71.3353 30.4088C70.6369 30.772 69.8893 31.0907 69.14 31.3626C66.8444 32.1805 64.4415 32.6754 61.9679 32.5639C59.9226 32.478 57.7736 32.1627 55.8436 31.3673C55.1693 31.1193 54.4914 30.7777 53.9082 30.4314C50.5535 28.3932 48.6878 26.797 48.8215 22.8494C48.9552 18.9017 49.4565 15.8741 49.4565 15.8741C49.4914 15.5439 49.9018 15.1012 50.0332 14.8132C50.2576 14.4736 50.4329 14.0896 50.6573 13.75C51.0588 13.0732 51.5058 12.3472 51.9565 11.7148C52.949 10.3518 54.1401 9.2134 55.5825 8.43787C57.9093 7.19609 60.6037 6.87436 63.2142 6.83831C65.1119 6.7908 67.0623 6.88142 68.8921 7.54105C70.4814 8.11881 71.7988 9.03852 72.9373 10.2486C74.1743 11.5477 75.0884 13.0974 76.1412 14.5463C76.1412 14.5463 76.8722 17.5126 77.3073 21.432C77.7424 25.3514 76.0041 27.08 72.8198 29.4904Z" fill="#5C6479"/>
<path d="M57.7937 21.9296C57.2426 22.4265 56.5959 24.1488 53.9481 23.2477C50.1917 21.9323 50.388 17.134 52.3698 15.5331C55.9172 12.6336 59.712 13.7123 60.4175 17.2452C61.132 21.0124 58.8978 20.9827 57.7937 21.9296Z" fill="#BFC8D6"/>
<path d="M51.4761 9.87393C52.6638 8.54464 54.1595 9.0348 53.4581 10.6222C52.3171 13.1723 50.4547 14.3 49.3002 23.9546C49.0797 25.6592 43.5426 21.6535 43.9304 15.6124C43.9823 14.4807 45.3998 14.175 45.3998 14.175C46.2503 13.9915 49.6038 11.99 51.4761 9.87393Z" fill="#989FB0"/>
<path d="M71.1732 27.7957C71.2181 28.9649 70.9296 30.1039 70.3971 31.0676C69.7921 31.3788 69.1381 31.6457 68.484 31.9125C66.4708 32.6218 64.3521 33.0552 62.261 32.9717C60.5033 32.9186 58.5927 32.5918 56.9064 31.926C56.2039 30.93 55.8294 29.824 55.7809 28.5612C55.6339 24.726 58.973 21.4672 63.2354 21.2552C67.4506 21.0456 71.0262 23.9605 71.1732 27.7957Z" fill="#BFC8D6"/>
<path d="M55.6414 21.5191C57.1865 21.4422 58.3917 20.1422 58.3332 18.6154C58.2748 17.0886 56.9747 15.9133 55.4296 15.9902C53.8844 16.0671 52.6792 17.3671 52.7377 18.8939C52.7962 20.4206 54.0962 21.596 55.6414 21.5191Z" fill="white"/>
<path d="M58.0595 18.9143C58.1043 20.0857 57.1462 21.1193 55.9607 21.1783C54.7752 21.2373 53.7417 20.3028 53.6968 19.1314C53.8937 19.3094 54.1362 19.4382 54.4207 19.424C54.9423 19.3981 55.4004 18.9528 55.3788 18.3905C55.3591 17.8751 54.9161 17.4746 54.3927 17.4537C54.7595 17.1069 55.274 16.8935 55.7956 16.8675C57.0285 16.8062 58.0128 17.6961 58.0595 18.9143Z" fill="#2E333D"/>
<path d="M71.1087 20.8438C72.6538 20.7669 73.859 19.4669 73.8005 17.9401C73.742 16.4133 72.442 15.238 70.8969 15.3149C69.3517 15.3918 68.1465 16.6918 68.205 18.2186C68.2635 19.7453 69.5635 20.9207 71.1087 20.8438Z" fill="white"/>
<path d="M68.5035 18.485C68.5483 19.6564 69.5819 20.5908 70.7674 20.5318C71.9528 20.4728 72.911 19.4393 72.8661 18.2679C72.6836 18.4647 72.4519 18.6171 72.1674 18.6313C71.6457 18.6572 71.1554 18.2591 71.1339 17.6968C71.1141 17.1814 71.5247 16.7385 72.0446 16.6657C71.6526 16.3566 71.1238 16.1951 70.6022 16.221C69.4167 16.28 68.4568 17.2667 68.5035 18.485Z" fill="#2E333D"/>
<path d="M63.2301 21.6923C62.8516 21.7111 62.4749 21.7765 62.1 21.8886C61.6323 22.0521 60.9316 22.3206 60.9549 22.9271C60.9835 23.6735 62.8082 24.284 63.2813 24.2605C63.7544 24.2371 65.5272 23.4946 65.4967 22.7015C65.4681 21.9551 64.7495 21.7571 64.1308 21.6943C63.8452 21.6617 63.5122 21.6315 63.2301 21.6923Z" fill="#989FB0"/>
<path d="M63.4801 24.126L63.3278 23.898L63.1935 24.1402C63.1935 24.1402 63.1135 25.7934 62.7514 26.3296C63.0028 26.647 63.2416 26.6352 63.3353 26.5834C63.4804 26.6233 63.7192 26.6115 63.8975 26.2728C63.5929 25.8167 63.4801 24.126 63.4801 24.126Z" fill="#989FB0"/>
<path d="M55.0044 12.7772C54.3482 12.9974 53.7867 13.213 53.3272 13.6111C52.8676 14.0091 52.5101 14.5898 52.3438 15.2078C52.3456 15.2546 52.2982 15.257 52.2509 15.2593C52.2035 15.2617 52.2017 15.2149 52.2017 15.2149C52.1891 14.8872 52.3169 14.5056 52.4483 14.2176C52.5779 13.8828 52.8041 13.5902 53.0795 13.342C53.3548 13.0937 53.632 12.8923 53.9583 12.7354C54.2864 12.6253 54.6637 12.5596 54.999 12.6367C55.0482 12.6812 55.0974 12.7256 55.0044 12.7772C55.0518 12.7748 55.0518 12.7748 55.0044 12.7772Z" fill="#989FB0"/>
<path d="M70.976 12.0969C71.6466 12.2512 72.2224 12.4101 72.7107 12.7611C73.1989 13.112 73.5995 13.6549 73.8124 14.2541C73.8142 14.3009 73.8616 14.2985 73.909 14.2962C73.9564 14.2938 73.9546 14.247 73.9546 14.247C73.942 13.9193 73.7855 13.5519 73.6326 13.278C73.4778 12.9574 73.2301 12.6883 72.9368 12.4684C72.6435 12.2485 72.352 12.0754 72.0149 11.9514C71.6796 11.8743 71.2987 11.8464 70.9706 11.9565C70.925 12.0057 70.9268 12.0525 70.976 12.0969C70.976 12.0969 70.9286 12.0993 70.976 12.0969Z" fill="#989FB0"/>
<path d="M74.0434 8.45042C72.7584 7.24409 71.3059 7.88087 72.1262 9.39258C73.4579 11.8198 75.3995 12.7582 77.2884 22.2616C77.6385 23.9378 82.848 19.3976 81.9994 13.4179C81.8611 12.2957 80.4256 12.1319 80.4256 12.1319C79.5643 12.0336 76.0704 10.3726 74.0434 8.45042Z" fill="#989FB0"/>
<path d="M68.3233 29.3202C68.6649 31.6981 66.7209 32.6138 64.1714 32.926C61.6219 33.2383 59.4866 32.8223 59.1451 30.4444C58.8035 28.0664 60.5699 25.9142 63.1194 25.602C65.6689 25.2897 67.9818 26.9422 68.3233 29.3202Z" fill="#5C6479"/>
<path d="M15.3399 23.175C16.2149 23.175 16.8954 22.3889 16.8954 21.5045C16.8954 20.6201 16.2149 19.834 15.2426 19.834C14.3676 19.834 13.5898 20.5218 13.5898 21.5045C13.6871 22.3889 14.4649 23.175 15.3399 23.175Z" fill="#2A2E37"/>
<path d="M13.6699 108.748H104.929" stroke="#2B323C" stroke-width="2" stroke-miterlimit="10" stroke-linecap="round" stroke-linejoin="round"/>
<path d="M1.29004 108.748H9.08728" stroke="#2B323C" stroke-width="2" stroke-miterlimit="10" stroke-linecap="round" stroke-linejoin="round"/>
<path d="M14.971 21.7572L10.9224 22.5698L13.9402 37.7163L17.9889 36.9036L14.971 21.7572Z" fill="#474E61"/>
<path d="M29.8523 37.8345L27.2249 24.4604H6.01797C5.07961 24.4604 4.32892 24.0836 3.76591 23.5185L2.26453 21.8232C1.70152 21.2581 2.07686 20.1279 3.01522 20.1279H28.9139C29.8523 20.1279 30.7906 20.8814 30.9783 21.8232L33.9811 36.8926L29.8523 37.8345Z" fill="#474E61"/>
<path d="M91.5961 108.472C95.6383 108.472 98.9153 105.183 98.9153 101.126C98.9153 97.0684 95.6383 93.7793 91.5961 93.7793C87.5538 93.7793 84.2769 97.0684 84.2769 101.126C84.2769 105.183 87.5538 108.472 91.5961 108.472Z" fill="#2A2E37"/>
<path d="M39.9862 108.472C44.0285 108.472 47.3054 105.183 47.3054 101.126C47.3054 97.0684 44.0285 93.7793 39.9862 93.7793C35.9439 93.7793 32.667 97.0684 32.667 101.126C32.667 105.183 35.9439 108.472 39.9862 108.472Z" fill="#2A2E37"/>
<path d="M39.3499 83.7379L35.3037 84.563L38.7413 101.546L42.7875 100.721L39.3499 83.7379Z" fill="#474E61"/>
<path d="M91.4087 103.198H27.9757C27.0373 103.198 26.099 102.444 25.9113 101.503L21.4072 79.6519C21.2195 78.5217 21.9702 77.3915 23.0962 77.2032C24.2222 77.0148 25.3483 77.7683 25.5359 78.8985L29.6647 99.0538H91.5964C92.7225 99.0538 93.6608 99.9956 93.6608 101.126C93.6608 102.256 92.7225 103.198 91.4087 103.198Z" fill="#474E61"/>
<path d="M27.6005 108.472C31.6427 108.472 34.9197 105.183 34.9197 101.126C34.9197 97.0684 31.6427 93.7793 27.6005 93.7793C23.5582 93.7793 20.2812 97.0684 20.2812 101.126C20.2812 105.183 23.5582 108.472 27.6005 108.472Z" fill="#2A2E37"/>
<path d="M27.6004 104.705C29.5698 104.705 31.1662 103.102 31.1662 101.126C31.1662 99.1492 29.5698 97.5469 27.6004 97.5469C25.6311 97.5469 24.0347 99.1492 24.0347 101.126C24.0347 103.102 25.6311 104.705 27.6004 104.705Z" fill="#1E1F28"/>
<path d="M79.2098 108.472C83.2521 108.472 86.529 105.183 86.529 101.126C86.529 97.0684 83.2521 93.7793 79.2098 93.7793C75.1675 93.7793 71.8906 97.0684 71.8906 101.126C71.8906 105.183 75.1675 108.472 79.2098 108.472Z" fill="#2A2E37"/>
<path d="M79.2098 104.705C81.1791 104.705 82.7756 103.102 82.7756 101.126C82.7756 99.1492 81.1791 97.5469 79.2098 97.5469C77.2405 97.5469 75.644 99.1492 75.644 101.126C75.644 103.102 77.2405 104.705 79.2098 104.705Z" fill="#1E1F28"/>
<path d="M106.61 36.3276L98.9151 80.594C98.3521 83.4195 96.1001 85.3032 93.285 85.3032H27.2245C24.4094 85.3032 22.1573 83.4195 21.5943 80.594L12.9614 36.3276H106.61Z" fill="#5C6479"/>
<path d="M52.1848 79.2756C53.1232 79.2756 54.0615 78.5221 54.0615 77.3919V44.4276C54.0615 43.4858 53.3109 42.5439 52.1848 42.5439C51.2465 42.5439 50.3081 43.2974 50.3081 44.4276V77.3919C50.3081 78.5221 51.0588 79.2756 52.1848 79.2756Z" fill="#474E61"/>
<path d="M61.7564 79.2753C62.6948 79.4636 63.6332 78.7102 63.8208 77.58L67.0112 44.804C67.1989 43.8622 66.4482 42.9203 65.3222 42.732C64.3838 42.5436 63.4455 43.2971 63.2578 44.4273L60.0674 77.2032C60.0674 78.3334 60.6304 79.0869 61.7564 79.2753Z" fill="#474E61"/>
<path d="M71.5154 79.0868C72.4538 79.2752 73.3922 78.5217 73.5798 77.5799L79.5853 45.1807C79.773 44.2389 79.0223 43.297 78.084 43.1086C77.1456 42.9203 76.2072 43.6738 76.0196 44.6156L70.2017 77.0148C69.8264 77.9566 70.5771 78.8985 71.5154 79.0868Z" fill="#474E61"/>
<path d="M42.4261 79.2753C41.4878 79.4636 40.5494 78.7102 40.3617 77.58L37.1713 44.804C36.9836 43.8622 37.7343 42.9203 38.8604 42.732C39.7987 42.5436 40.7371 43.2971 40.9248 44.4273L44.1152 77.2032C44.1152 78.3334 43.5522 79.0869 42.4261 79.2753Z" fill="#474E61"/>
<path d="M32.6672 79.0868C31.7288 79.2752 30.7905 78.5217 30.6028 77.5799L24.5973 45.1807C24.4096 44.2389 25.1603 43.297 26.0987 43.1086C27.037 42.9203 27.9754 43.6738 28.1631 44.6156L33.9809 77.0148C34.3562 77.9566 33.6056 78.8985 32.6672 79.0868Z" fill="#474E61"/>
<path d="M106.61 36.3267L98.9157 80.593C98.3527 83.4185 96.1006 85.3022 93.2855 85.3022H75.832C79.0225 85.3022 81.6499 83.0418 82.2129 80.0279L90.2828 36.3267H106.61Z" fill="#474E61"/>
</svg>
