<svg width="154" height="136" viewBox="0 0 154 136" fill="none" xmlns="http://www.w3.org/2000/svg">
<path d="M134.648 58.7265C134.648 71.9542 130.219 84.3837 122.837 94.1904C118.748 99.5499 113.865 104.225 108.187 107.874C99.1015 113.918 88.0856 117.339 76.3883 117.339C44.2491 117.453 18.1289 91.2256 18.1289 58.7265C18.1289 26.3414 44.1355 0 76.3883 0C88.0856 0 98.9879 3.42096 108.187 9.46466C113.865 13.1137 118.748 17.789 122.837 23.1485C130.219 33.0693 134.648 45.3847 134.648 58.7265Z" fill="#2A2E37"/>
<path d="M32.0195 50.8743H31.3162C30.7887 50.8743 30.437 50.7102 30.437 50.464C30.437 50.2178 30.7887 50.0537 31.3162 50.0537H32.0195C32.547 50.0537 32.8987 50.2178 32.8987 50.464C32.8987 50.7102 32.547 50.8743 32.0195 50.8743Z" fill="#2D5887"/>
<path d="M32.0195 54.1565H31.3162C30.7887 54.1565 30.437 53.9924 30.437 53.7462C30.437 53.5 30.7887 53.3359 31.3162 53.3359H32.0195C32.547 53.3359 32.8987 53.5 32.8987 53.7462C32.8987 53.9924 32.547 54.1565 32.0195 54.1565Z" fill="#2D5887"/>
<path d="M32.0195 57.4387H31.3162C30.7887 57.4387 30.437 57.2746 30.437 57.0284C30.437 56.7823 30.7887 56.6182 31.3162 56.6182H32.0195C32.547 56.6182 32.8987 56.7823 32.8987 57.0284C32.8987 57.2746 32.547 57.4387 32.0195 57.4387Z" fill="#2D5887"/>
<path d="M32.0195 60.7209H31.3162C30.7887 60.7209 30.437 60.5568 30.437 60.3107C30.437 60.0645 30.7887 59.9004 31.3162 59.9004H32.0195C32.547 59.9004 32.8987 60.0645 32.8987 60.3107C32.8987 60.5568 32.547 60.7209 32.0195 60.7209Z" fill="#2D5887"/>
<path d="M64.1189 50.8743H52.553C52.0841 50.8743 51.7715 50.7102 51.7715 50.464C51.7715 50.2178 52.0841 50.0537 52.553 50.0537H64.1189C64.5878 50.0537 64.9004 50.2178 64.9004 50.464C64.9004 50.7102 64.5878 50.8743 64.1189 50.8743Z" fill="white"/>
<path d="M88.7621 60.7209H52.5264C52.0734 60.7209 51.7715 60.5568 51.7715 60.3107C51.7715 60.0645 52.0734 59.9004 52.5264 59.9004H88.7621C89.215 59.9004 89.517 60.0645 89.517 60.3107C89.517 60.5568 89.215 60.7209 88.7621 60.7209Z" fill="url(#paint0_linear)"/>
<path d="M64.1642 54.1565H48.4053C47.9635 54.1565 47.6689 53.9924 47.6689 53.7462C47.6689 53.5 47.9635 53.3359 48.4053 53.3359H64.1642C64.606 53.3359 64.9006 53.5 64.9006 53.7462C64.9006 53.9924 64.606 54.1565 64.1642 54.1565Z" fill="#2D5887"/>
<path d="M76.4741 57.4387H48.4038C47.9629 57.4387 47.6689 57.2746 47.6689 57.0284C47.6689 56.7823 47.9629 56.6182 48.4038 56.6182H76.4741C76.915 56.6182 77.2089 56.7823 77.2089 57.0284C77.0619 57.2746 76.768 57.4387 76.4741 57.4387Z" fill="#2D5887"/>
<path d="M88.7181 57.4387H78.0082C77.5287 57.4387 77.209 57.2746 77.209 57.0284C77.209 56.7823 77.5287 56.6182 78.0082 56.6182H88.7181C89.1976 56.6182 89.5173 56.7823 89.5173 57.0284C89.5173 57.2746 89.1976 57.4387 88.7181 57.4387Z" fill="white"/>
<path d="M95.3056 57.4387H91.1141C90.6484 57.4387 90.3379 57.2746 90.3379 57.0284C90.3379 56.7823 90.6484 56.6182 91.1141 56.6182H95.3056C95.7713 56.6182 96.0818 56.7823 96.0818 57.0284C96.0818 57.2746 95.7713 57.4387 95.3056 57.4387Z" fill="url(#paint1_linear)"/>
<path d="M5 102.569H142.853" stroke="#2B323C" stroke-width="2" stroke-miterlimit="10" stroke-linecap="round" stroke-linejoin="round"/>
<g filter="url(#filter0_d)">
<path d="M101.825 50.0537V102.569H27.3713C24.4342 102.569 22.2314 100.209 22.2314 97.4062V50.0537H101.825Z" fill="#5C6479"/>
</g>
<path d="M131.366 50.0537V97.4062C131.366 100.356 128.917 102.569 126.009 102.569H101.826V50.0537H131.366Z" fill="#DAE1ED"/>
<g filter="url(#filter1_d)">
<path d="M131.366 50.0537V97.4062C131.366 100.356 128.917 102.569 126.009 102.569H101.826V50.0537H131.366Z" fill="#474E61"/>
</g>
<path d="M50.9512 50.0537L66.6074 25.437H146.956L130.857 50.0537H50.9512Z" fill="#C5CDDB"/>
<path d="M50.9512 50.0537L66.6074 25.437H146.956L130.857 50.0537H50.9512Z" fill="#5A6177"/>
<path opacity="0.3" d="M131.366 50.1975V77.9526H109.826C107.826 77.9526 106.441 76.6583 106.134 74.7888L101.826 50.0537L131.366 50.1975Z" fill="url(#paint2_linear)"/>
<path d="M130.747 50.0537H101.826L116.511 72.3119C117.56 73.7859 119.208 74.6704 120.857 74.6704H143.334C144.833 74.6704 145.882 72.9015 144.982 71.7223L130.747 50.0537Z" fill="#6F778B"/>
<path d="M101.825 50.0537L86.0597 25.437H5L21.3607 50.0537H101.825Z" fill="#474E61"/>
<path d="M61.9543 80.4143H30.9218C30.1967 80.4143 29.6167 79.8673 29.6167 79.1835C29.6167 78.4997 30.1967 77.9526 30.9218 77.9526H61.9543C62.6794 77.9526 63.2594 78.4997 63.2594 79.1835C63.1144 79.8673 62.6794 80.4143 61.9543 80.4143Z" fill="#42495B"/>
<path d="M61.9543 86.1582H30.9218C30.1967 86.1582 29.6167 85.7935 29.6167 85.3376C29.6167 84.8818 30.1967 84.5171 30.9218 84.5171H61.9543C62.6794 84.5171 63.2594 84.8818 63.2594 85.3376C63.1144 85.7935 62.6794 86.1582 61.9543 86.1582Z" fill="#42495B"/>
<path d="M45.5228 92.7227H30.9422C30.2058 92.7227 29.6167 92.358 29.6167 91.9021C29.6167 91.4462 30.2058 91.0815 30.9422 91.0815H45.5228C46.2592 91.0815 46.8483 91.4462 46.8483 91.9021C46.7011 92.358 46.1119 92.7227 45.5228 92.7227Z" fill="#42495B"/>
<defs>
<filter id="filter0_d" x="0.231445" y="39.0537" width="123.594" height="96.5156" filterUnits="userSpaceOnUse" color-interpolation-filters="sRGB">
<feFlood flood-opacity="0" result="BackgroundImageFix"/>
<feColorMatrix in="SourceAlpha" type="matrix" values="0 0 0 0 0 0 0 0 0 0 0 0 0 0 0 0 0 0 127 0" result="hardAlpha"/>
<feOffset dy="11"/>
<feGaussianBlur stdDeviation="11"/>
<feColorMatrix type="matrix" values="0 0 0 0 0 0 0 0 0 0 0 0 0 0 0 0 0 0 0.27 0"/>
<feBlend mode="normal" in2="BackgroundImageFix" result="effect1_dropShadow"/>
<feBlend mode="normal" in="SourceGraphic" in2="effect1_dropShadow" result="shape"/>
</filter>
<filter id="filter1_d" x="79.8257" y="39.0537" width="73.54" height="96.5156" filterUnits="userSpaceOnUse" color-interpolation-filters="sRGB">
<feFlood flood-opacity="0" result="BackgroundImageFix"/>
<feColorMatrix in="SourceAlpha" type="matrix" values="0 0 0 0 0 0 0 0 0 0 0 0 0 0 0 0 0 0 127 0" result="hardAlpha"/>
<feOffset dy="11"/>
<feGaussianBlur stdDeviation="11"/>
<feColorMatrix type="matrix" values="0 0 0 0 0 0 0 0 0 0 0 0 0 0 0 0 0 0 0.27 0"/>
<feBlend mode="normal" in2="BackgroundImageFix" result="effect1_dropShadow"/>
<feBlend mode="normal" in="SourceGraphic" in2="effect1_dropShadow" result="shape"/>
</filter>
<linearGradient id="paint0_linear" x1="51.941" y1="60.3273" x2="89.5608" y2="60.3273" gradientUnits="userSpaceOnUse">
<stop stop-color="#FF66A9"/>
<stop offset="1" stop-color="#F53689"/>
</linearGradient>
<linearGradient id="paint1_linear" x1="90.3762" y1="57.0033" x2="96.0807" y2="57.0033" gradientUnits="userSpaceOnUse">
<stop stop-color="#83A6FF"/>
<stop offset="1" stop-color="#5A78FF"/>
</linearGradient>
<linearGradient id="paint2_linear" x1="116.602" y1="78.5252" x2="116.602" y2="53.1127" gradientUnits="userSpaceOnUse">
<stop offset="0.00289017" stop-color="#484F62"/>
<stop offset="1" stop-color="#15171C"/>
</linearGradient>
</defs>
</svg>
